<svg xmlns="http://www.w3.org/2000/svg" height="24px" viewBox="0 -960 960 960" width="24px" fill="currentColor">
<path d="M480-160Q513-160 536.5-183.5T560-240 536.5-296.5 480-320 423.5-296.5 400-240 423.5-183.5 480-160ZM720-160Q753-160 776.5-183.5T800-240 776.5-296.5 720-320 663.5-296.5 640-240 663.5-183.5 720-160ZM720-400Q753-400 776.5-423.5T800-480 776.5-536.5 720-560 663.5-536.5 640-480 663.5-423.5 720-400ZM480-640Q513-640 536.5-663.5T560-720 536.5-776.5 480-800 423.5-776.5 400-720 423.5-663.5 480-640ZM240-640Q273-640 296.5-663.5T320-720 296.5-776.5 240-800 183.5-776.5 160-720 183.5-663.5 240-640ZM240-400Q273-400 296.5-423.5T320-480 296.5-536.5 240-560 183.5-536.5 160-480 183.5-423.5 240-400Z"/>
<path fill="#00b04c" d="M240-160Q273-160 296.5-183.5T321-241Q322-254.5 318-267.5L459-402Q480-396 500.5-401.5T537-423Q552-438 557.5-459T558-501L700-642 720-640Q753-640 776.5-663.5T800-720 776.5-776.5 720-800 663.5-776.5 640-720V-710Q640-705 642-700L500-558Q479-563 458.5-557.5T423-537 402.5-501.5 402-460L260-318Q255-320 250-320H240Q207-320 183.5-296.5T160-240 183.5-183.5 240-160Z"/></svg>