<?xml version="1.0" encoding="UTF-8" standalone="no"?>
<!DOCTYPE svg PUBLIC "-//W3C//DTD SVG 20010904//EN"
              "http://www.w3.org/TR/2001/REC-SVG-20010904/DTD/svg10.dtd">
<svg
	xmlns="http://www.w3.org/2000/svg"
     width="24px" height="24px"
     viewBox="0 0 540 540">
	<defs>
		<filter id="shadow">
			<feDropShadow dx="6" dy="6" stdDeviation="6" flood-opacity="0.8" />
		</filter>
	</defs>
	<g filter="url(#shadow)">
		<path id="green"
        fill="#00b04c"
        d="M466 191C457 189 415 189 406 191 386 195 369 213 365 234 363 243 363 286 365 296 369 317 386 335 407 339 416 341 457 341 466 339 486 335 503 317 508 296 509 286 509 243 508 234 503 213 486 195 466 191M466 380C457 378 415 378 406 380 386 385 369 402 365 424 363 433 363 476 365 485 369 506 386 524 407 529 416 530 457 530 466 529 486 524 503 506 508 485 509 476 509 433 508 424 503 402 486 385 466 380M102 380C94 378 51 378 43 380 23 385 6 402 1 424-0 433-0 476 1 485 6 506 23 524 43 529 52 530 93 530 102 529 123 524 140 506 144 485 146 476 146 433 144 424 140 402 123 385 102 380M284 191C276 189 233 189 225 191 204 195 187 213 183 234 181 243 181 286 183 296 188 317 204 335 225 339 234 341 275 341 284 339 305 335 321 317 326 296 328 286 328 243 326 234 321 213 305 195 284 191M466 1C457-1 415-0 406 1 386 6 369 24 365 45 363 54 363 97 365 106 369 128 386 145 407 150 416 152 457 152 466 150 486 145 503 128 508 106 509 97 509 54 508 45 503 24 486 6 466 1" />
		<path id="yellow"
        fill="#ffb300"
        d="M284 1C276-1 233-0 225 1 204 6 187 24 183 45 181 54 181 97 183 106 188 128 204 145 225 150 234 152 275 152 284 150 305 145 321 128 326 106 328 97 328 54 326 45 321 24 305 6 284 1" />
		<path id="gray"
        fill="#74777f"
        d="M102 191C94 189 51 189 43 191 23 195 6 213 1 234-0 243-0 286 1 296 6 317 23 335 43 339 52 341 93 341 102 339 123 335 140 317 144 296 146 286 146 243 144 234 140 213 123 195 102 191M102 1C94-1 51-0 43 1 23 6 6 24 1 45-0 54-0 97 1 106 6 128 23 145 43 150 52 152 93 152 102 150 123 145 140 128 144 106 146 97 146 54 144 45 140 24 123 6 102 1Z M284 380C276 378 233 378 225 380 204 385 187 402 183 424 181 433 181 476 183 485 188 506 204 524 225 529 234 530 275 530 284 529 305 524 321 506 326 485 328 476 328 433 326 424 321 402 305 385 284 380" />
	</g>
</svg>
